<svg xmlns="http://www.w3.org/2000/svg" xmlns:xlink="http://www.w3.org/1999/xlink" width="160px" height="38px" viewBox="0 0 159 38" version="1.1">
<g id="surface1">
<path style="stroke:none;fill-rule:nonzero;fill:rgb(100%,100%,100%);fill-opacity:1;" d="M 0.378906 8.074219 C 2.003906 8.074219 3.625 8.074219 5.300781 8.074219 C 5.84375 10.691406 5.84375 10.691406 6.066406 11.871094 C 6.089844 12.003906 6.117188 12.136719 6.140625 12.265625 C 6.207031 12.613281 6.269531 12.957031 6.335938 13.300781 C 6.445312 13.878906 6.554688 14.457031 6.664062 15.035156 C 6.691406 15.175781 6.71875 15.316406 6.746094 15.460938 C 6.898438 16.253906 7.046875 17.046875 7.203125 17.84375 C 7.226562 17.949219 7.226562 17.949219 7.246094 18.058594 C 7.273438 18.195312 7.300781 18.328125 7.328125 18.464844 C 7.730469 20.503906 8.074219 22.554688 8.421875 24.605469 C 8.4375 24.523438 8.453125 24.445312 8.46875 24.363281 C 9.5 18.894531 10.84375 13.488281 12.113281 8.074219 C 13.738281 8.074219 15.363281 8.074219 17.035156 8.074219 C 17.152344 8.421875 17.25 8.730469 17.324219 9.078125 C 17.34375 9.160156 17.359375 9.242188 17.378906 9.328125 C 17.394531 9.417969 17.414062 9.503906 17.433594 9.59375 C 17.453125 9.691406 17.472656 9.785156 17.496094 9.882812 C 17.5625 10.195312 17.628906 10.507812 17.695312 10.824219 C 17.738281 11.042969 17.785156 11.265625 17.832031 11.488281 C 17.933594 11.953125 18.03125 12.421875 18.128906 12.886719 C 18.226562 13.359375 18.324219 13.828125 18.425781 14.300781 C 18.917969 16.628906 19.40625 18.957031 19.839844 21.296875 C 19.855469 21.378906 19.871094 21.460938 19.886719 21.546875 C 20.0625 22.5 20.222656 23.453125 20.347656 24.414062 C 20.359375 24.355469 20.371094 24.296875 20.382812 24.238281 C 21.082031 20.539062 21.816406 16.84375 22.574219 13.15625 C 22.644531 12.824219 22.710938 12.492188 22.78125 12.160156 C 22.886719 11.632812 22.996094 11.105469 23.105469 10.582031 C 23.144531 10.382812 23.183594 10.1875 23.226562 9.992188 C 23.28125 9.71875 23.335938 9.449219 23.394531 9.179688 C 23.410156 9.101562 23.425781 9.019531 23.441406 8.941406 C 23.503906 8.644531 23.566406 8.359375 23.660156 8.074219 C 25.222656 8.074219 26.785156 8.074219 28.394531 8.074219 C 27.957031 9.929688 27.957031 9.929688 27.773438 10.632812 C 27.75 10.714844 27.730469 10.796875 27.707031 10.882812 C 27.636719 11.148438 27.570312 11.417969 27.5 11.683594 C 27.449219 11.878906 27.398438 12.070312 27.347656 12.265625 C 27.210938 12.78125 27.074219 13.300781 26.9375 13.820312 C 26.824219 14.253906 26.714844 14.6875 26.597656 15.121094 C 25.578125 19.03125 24.550781 22.9375 23.523438 26.847656 C 23.503906 26.917969 23.484375 26.992188 23.464844 27.066406 C 23.429688 27.203125 23.390625 27.34375 23.351562 27.484375 C 23.253906 27.863281 23.160156 28.238281 23.074219 28.621094 C 23.042969 28.746094 23.042969 28.746094 23.015625 28.871094 C 22.976562 29.03125 22.941406 29.195312 22.910156 29.355469 C 22.859375 29.558594 22.8125 29.738281 22.714844 29.925781 C 22.4375 30.066406 22.4375 30.066406 22.144531 30.113281 C 22.027344 30.136719 21.914062 30.152344 21.792969 30.175781 C 20.707031 30.285156 19.449219 30.261719 18.53125 29.597656 C 17.382812 28.601562 17.070312 27.347656 16.761719 25.90625 C 16.730469 25.746094 16.695312 25.585938 16.660156 25.425781 C 16.554688 24.949219 16.453125 24.472656 16.351562 23.996094 C 16.269531 23.621094 16.191406 23.242188 16.109375 22.867188 C 15.949219 22.136719 15.796875 21.410156 15.640625 20.679688 C 15.578125 20.386719 15.515625 20.097656 15.453125 19.804688 C 15.027344 17.835938 14.671875 15.863281 14.386719 13.871094 C 14.371094 13.953125 14.355469 14.03125 14.339844 14.117188 C 13.902344 16.519531 13.355469 18.890625 12.765625 21.261719 C 12.65625 21.714844 12.542969 22.171875 12.433594 22.625 C 12.300781 23.164062 12.167969 23.703125 12.035156 24.242188 C 11.808594 25.148438 11.589844 26.058594 11.371094 26.964844 C 11.328125 27.148438 11.285156 27.332031 11.238281 27.511719 C 11.15625 27.855469 11.074219 28.199219 10.992188 28.542969 C 10.957031 28.699219 10.917969 28.851562 10.882812 29.007812 C 10.867188 29.078125 10.851562 29.148438 10.832031 29.21875 C 10.757812 29.53125 10.6875 29.75 10.503906 30.019531 C 9.292969 30.363281 7.8125 30.375 6.667969 29.804688 C 5.5 29.085938 5.046875 27.804688 4.722656 26.527344 C 4.683594 26.371094 4.683594 26.371094 4.640625 26.214844 C 4.1875 24.460938 3.773438 22.695312 3.355469 20.929688 C 3.230469 20.40625 3.105469 19.882812 2.980469 19.355469 C 2.828125 18.71875 2.675781 18.078125 2.527344 17.441406 C 2.222656 16.175781 1.921875 14.910156 1.617188 13.644531 C 1.554688 13.390625 1.496094 13.132812 1.433594 12.878906 C 1.402344 12.757812 1.402344 12.757812 1.375 12.632812 C 1.335938 12.46875 1.296875 12.308594 1.257812 12.148438 C 1.164062 11.761719 1.070312 11.375 0.976562 10.988281 C 0.890625 10.628906 0.804688 10.269531 0.71875 9.914062 C 0.6875 9.785156 0.65625 9.65625 0.625 9.527344 C 0.582031 9.351562 0.539062 9.175781 0.5 9 C 0.476562 8.90625 0.453125 8.808594 0.429688 8.707031 C 0.378906 8.453125 0.378906 8.453125 0.378906 8.074219 Z M 0.378906 8.074219"></path>
<path style="stroke:none;fill-rule:nonzero;fill:rgb(100%,100%,100%);fill-opacity:1;" d="M 64.1875 14.261719 C 64.652344 14.703125 65.011719 15.199219 65.304688 15.769531 C 65.304688 15.832031 65.304688 15.894531 65.304688 15.960938 C 65.578125 15.695312 65.824219 15.425781 66.066406 15.128906 C 67.136719 13.898438 68.605469 13.199219 70.21875 13.082031 C 71.671875 13.035156 73.035156 13.367188 74.175781 14.308594 C 75.578125 15.652344 76.128906 17.632812 76.195312 19.53125 C 76.199219 19.808594 76.199219 20.082031 76.199219 20.359375 C 76.199219 20.460938 76.199219 20.566406 76.199219 20.671875 C 76.199219 21.015625 76.199219 21.355469 76.195312 21.695312 C 76.195312 21.933594 76.195312 22.171875 76.195312 22.40625 C 76.195312 22.964844 76.195312 23.527344 76.195312 24.085938 C 76.191406 24.785156 76.191406 25.484375 76.191406 26.183594 C 76.191406 27.433594 76.1875 28.679688 76.1875 29.925781 C 74.6875 29.925781 73.1875 29.925781 71.644531 29.925781 C 71.640625 29.203125 71.636719 28.484375 71.632812 27.742188 C 71.632812 27.285156 71.628906 26.824219 71.625 26.367188 C 71.621094 25.640625 71.613281 24.914062 71.613281 24.1875 C 71.609375 23.601562 71.605469 23.015625 71.601562 22.433594 C 71.597656 22.207031 71.597656 21.984375 71.597656 21.761719 C 71.59375 19.734375 71.59375 19.734375 70.886719 17.859375 C 70.855469 17.792969 70.824219 17.726562 70.789062 17.65625 C 70.664062 17.417969 70.566406 17.386719 70.320312 17.289062 C 70.207031 17.238281 70.097656 17.1875 69.984375 17.136719 C 69.222656 16.859375 68.503906 16.945312 67.777344 17.277344 C 67.15625 17.605469 66.828125 18.085938 66.535156 18.714844 C 66.347656 19.324219 66.316406 19.886719 66.3125 20.519531 C 66.3125 20.621094 66.3125 20.726562 66.3125 20.832031 C 66.308594 21.164062 66.308594 21.5 66.304688 21.835938 C 66.304688 22.066406 66.300781 22.300781 66.300781 22.535156 C 66.296875 23.148438 66.292969 23.757812 66.289062 24.371094 C 66.28125 25.105469 66.277344 25.84375 66.273438 26.578125 C 66.265625 27.691406 66.257812 28.808594 66.25 29.925781 C 64.75 29.925781 63.25 29.925781 61.707031 29.925781 C 61.703125 28.816406 61.703125 28.816406 61.699219 27.683594 C 61.699219 27.210938 61.695312 26.742188 61.691406 26.269531 C 61.6875 25.523438 61.683594 24.777344 61.679688 24.03125 C 61.679688 23.429688 61.675781 22.828125 61.671875 22.226562 C 61.671875 22 61.671875 21.769531 61.671875 21.539062 C 61.710938 19.460938 61.710938 19.460938 60.820312 17.628906 C 60.277344 17.105469 59.664062 16.96875 58.929688 16.980469 C 58.179688 17.058594 57.566406 17.5 57.070312 18.050781 C 56.46875 18.886719 56.378906 19.78125 56.375 20.789062 C 56.375 20.9375 56.375 20.9375 56.375 21.089844 C 56.371094 21.417969 56.371094 21.742188 56.367188 22.066406 C 56.367188 22.292969 56.363281 22.519531 56.363281 22.746094 C 56.359375 23.34375 56.355469 23.9375 56.351562 24.53125 C 56.34375 25.246094 56.339844 25.960938 56.335938 26.675781 C 56.328125 27.757812 56.320312 28.839844 56.3125 29.925781 C 54.84375 29.925781 53.375 29.925781 51.863281 29.925781 C 51.863281 24.5 51.863281 19.078125 51.863281 13.492188 C 53.269531 13.492188 54.675781 13.492188 56.121094 13.492188 C 56.171875 14.476562 56.171875 14.476562 56.21875 15.484375 C 56.3125 15.355469 56.40625 15.230469 56.5 15.097656 C 57.347656 14.019531 58.414062 13.386719 59.765625 13.144531 C 61.398438 12.972656 62.902344 13.175781 64.1875 14.261719 Z M 64.1875 14.261719"></path>
<path style="stroke:none;fill-rule:nonzero;fill:rgb(100%,100%,100%);fill-opacity:1;" d="M 39.277344 14.441406 C 39.335938 14.480469 39.394531 14.519531 39.457031 14.5625 C 40.5625 15.386719 41.144531 16.9375 41.382812 18.238281 C 41.539062 19.425781 41.5625 20.609375 41.574219 21.800781 C 41.574219 22.074219 41.578125 22.347656 41.582031 22.621094 C 41.585938 23.203125 41.589844 23.78125 41.59375 24.363281 C 41.601562 25.035156 41.605469 25.707031 41.613281 26.378906 C 41.617188 26.644531 41.617188 26.914062 41.621094 27.179688 C 41.628906 28.128906 41.660156 29.070312 41.738281 30.019531 C 40.726562 30.296875 39.589844 30.382812 38.613281 29.925781 C 37.988281 29.488281 37.574219 29.019531 37.289062 28.308594 C 37.234375 28.371094 37.175781 28.433594 37.117188 28.5 C 35.839844 29.769531 34.289062 30.324219 32.515625 30.347656 C 30.988281 30.339844 29.738281 29.890625 28.617188 28.832031 C 27.585938 27.734375 27.21875 26.355469 27.230469 24.878906 C 27.335938 23.394531 27.941406 22.320312 28.960938 21.28125 C 29.035156 21.199219 29.035156 21.199219 29.113281 21.121094 C 31.050781 19.273438 34.234375 19.03125 36.75 19.089844 C 36.828125 19.09375 36.828125 19.09375 36.910156 19.09375 C 36.726562 18.128906 36.726562 18.128906 36.25 17.289062 C 36.25 17.226562 36.25 17.164062 36.25 17.101562 C 34.550781 16.21875 32.828125 16.363281 31.046875 16.898438 C 30.445312 17.09375 29.890625 17.359375 29.339844 17.671875 C 29.113281 17.085938 28.921875 16.496094 28.746094 15.894531 C 28.722656 15.808594 28.695312 15.71875 28.667969 15.628906 C 28.644531 15.542969 28.617188 15.457031 28.59375 15.371094 C 28.558594 15.257812 28.558594 15.257812 28.523438 15.140625 C 28.480469 14.875 28.5 14.695312 28.582031 14.441406 C 28.800781 14.300781 28.988281 14.203125 29.226562 14.109375 C 29.292969 14.078125 29.359375 14.050781 29.429688 14.023438 C 32.425781 12.820312 36.550781 12.429688 39.277344 14.441406 Z M 32.425781 23.289062 C 31.902344 23.890625 31.832031 24.441406 31.859375 25.238281 C 31.917969 25.773438 32.058594 26.117188 32.453125 26.484375 C 33.117188 27.011719 33.710938 27.050781 34.542969 26.980469 C 35.324219 26.796875 36.035156 26.457031 36.511719 25.796875 C 36.882812 25.195312 37.019531 24.789062 37.015625 24.082031 C 37.015625 23.960938 37.015625 23.84375 37.015625 23.722656 C 37.011719 23.597656 37.011719 23.472656 37.011719 23.347656 C 37.011719 23.222656 37.011719 23.097656 37.011719 22.96875 C 37.007812 22.660156 37.007812 22.347656 37.003906 22.039062 C 35.441406 22.007812 33.609375 22.132812 32.425781 23.289062 Z M 32.425781 23.289062"></path>
<path style="stroke:none;fill-rule:nonzero;fill:rgb(100%,100%,100%);fill-opacity:1;" d="M 90.164062 14.695312 C 91.585938 16.023438 91.996094 17.984375 92.085938 19.855469 C 92.105469 20.402344 92.109375 20.949219 92.113281 21.5 C 92.113281 21.773438 92.117188 22.042969 92.121094 22.316406 C 92.125 22.894531 92.128906 23.472656 92.132812 24.054688 C 92.140625 24.722656 92.144531 25.394531 92.152344 26.0625 C 92.15625 26.328125 92.15625 26.59375 92.160156 26.859375 C 92.167969 27.914062 92.207031 28.964844 92.277344 30.019531 C 91.125 30.332031 90.007812 30.335938 88.941406 29.757812 C 88.441406 29.347656 88.089844 28.90625 87.828125 28.308594 C 87.792969 28.351562 87.757812 28.390625 87.71875 28.433594 C 86.667969 29.558594 85.128906 30.273438 83.585938 30.332031 C 83.429688 30.335938 83.269531 30.335938 83.113281 30.335938 C 83.03125 30.335938 82.949219 30.332031 82.863281 30.332031 C 81.496094 30.308594 80.226562 29.871094 79.226562 28.910156 C 78.167969 27.738281 77.734375 26.359375 77.796875 24.792969 C 77.96875 23.136719 78.6875 21.964844 79.914062 20.894531 C 82.046875 19.277344 84.878906 19.050781 87.449219 19.09375 C 87.265625 17.867188 87.265625 17.867188 86.5 16.960938 C 85.222656 16.222656 83.601562 16.363281 82.222656 16.722656 C 81.402344 16.957031 80.640625 17.289062 79.878906 17.667969 C 79.027344 15 79.027344 15 79.027344 14.535156 C 82.328125 12.839844 87.105469 12.167969 90.164062 14.695312 Z M 82.960938 23.304688 C 82.445312 23.871094 82.398438 24.425781 82.40625 25.164062 C 82.457031 25.734375 82.65625 26.207031 83.085938 26.59375 C 83.722656 27.015625 84.332031 27.054688 85.082031 26.980469 C 86.09375 26.742188 86.785156 26.25 87.34375 25.378906 C 87.554688 24.972656 87.554688 24.609375 87.554688 24.15625 C 87.554688 24.03125 87.554688 23.910156 87.554688 23.78125 C 87.550781 23.652344 87.550781 23.523438 87.550781 23.394531 C 87.550781 23.261719 87.550781 23.132812 87.550781 23 C 87.546875 22.679688 87.546875 22.359375 87.542969 22.039062 C 85.953125 22.007812 84.164062 22.144531 82.960938 23.304688 Z M 82.960938 23.304688"></path>
<path style="stroke:none;fill-rule:nonzero;fill:rgb(100%,100%,100%);fill-opacity:1;" d="M 106.285156 8.074219 C 107.71875 8.074219 109.15625 8.074219 110.636719 8.074219 C 110.636719 9.769531 110.636719 11.460938 110.636719 13.203125 C 111.917969 13.203125 113.199219 13.203125 114.519531 13.203125 C 114.519531 14.617188 114.519531 16.027344 114.519531 17.480469 C 113.238281 17.480469 111.957031 17.480469 110.636719 17.480469 C 110.648438 18.59375 110.648438 18.59375 110.660156 19.710938 C 110.667969 20.167969 110.671875 20.625 110.675781 21.078125 C 110.679688 21.449219 110.6875 21.816406 110.691406 22.183594 C 110.691406 22.324219 110.691406 22.464844 110.695312 22.601562 C 110.660156 24.433594 110.660156 24.433594 111.375 26.054688 C 112.074219 26.613281 113.097656 26.445312 113.933594 26.363281 C 114.066406 26.347656 114.195312 26.332031 114.328125 26.316406 C 114.414062 27.488281 114.433594 28.652344 114.421875 29.828125 C 112.726562 30.421875 110.648438 30.660156 108.945312 29.976562 C 107.828125 29.425781 107.117188 28.671875 106.675781 27.496094 C 106.285156 26.324219 106.242188 25.183594 106.25 23.960938 C 106.25 23.785156 106.25 23.613281 106.25 23.4375 C 106.25 22.96875 106.253906 22.5 106.253906 22.03125 C 106.257812 21.542969 106.257812 21.050781 106.257812 20.558594 C 106.257812 19.628906 106.261719 18.699219 106.261719 17.773438 C 106.265625 16.714844 106.269531 15.65625 106.269531 14.597656 C 106.273438 12.425781 106.277344 10.25 106.285156 8.074219 Z M 106.285156 8.074219"></path>
<path style="stroke:none;fill-rule:nonzero;fill:rgb(100%,100%,100%);fill-opacity:1;" d="M 44.386719 8.074219 C 45.855469 8.074219 47.324219 8.074219 48.835938 8.074219 C 48.835938 15.285156 48.835938 22.496094 48.835938 29.925781 C 47.367188 29.925781 45.898438 29.925781 44.386719 29.925781 C 44.386719 22.714844 44.386719 15.503906 44.386719 8.074219 Z M 44.386719 8.074219"></path>
<path style="stroke:none;fill-rule:nonzero;fill:rgb(100%,100%,100%);fill-opacity:1;" d="M 104.484375 13.203125 C 104.484375 14.648438 104.484375 16.089844 104.484375 17.574219 C 103.828125 17.574219 103.175781 17.574219 102.5 17.574219 C 101.382812 17.910156 100.582031 18.277344 100.011719 19.316406 C 99.695312 20 99.644531 20.605469 99.640625 21.351562 C 99.636719 21.445312 99.636719 21.535156 99.636719 21.632812 C 99.632812 21.9375 99.632812 22.242188 99.628906 22.550781 C 99.625 22.761719 99.625 22.972656 99.621094 23.1875 C 99.617188 23.746094 99.613281 24.304688 99.609375 24.863281 C 99.601562 25.53125 99.597656 26.203125 99.589844 26.871094 C 99.582031 27.890625 99.574219 28.90625 99.5625 29.925781 C 98.035156 29.925781 96.503906 29.925781 94.925781 29.925781 C 94.925781 24.5 94.925781 19.078125 94.925781 13.488281 C 96.269531 13.488281 97.613281 13.488281 98.996094 13.488281 C 99.042969 14.851562 99.042969 14.851562 99.089844 16.246094 C 99.179688 16.0625 99.269531 15.875 99.363281 15.6875 C 99.988281 14.488281 100.976562 13.707031 102.238281 13.265625 C 102.953125 13.058594 103.769531 12.964844 104.484375 13.203125 Z M 104.484375 13.203125"></path>
<path style="stroke:none;fill-rule:nonzero;fill:rgb(100%,76.078433%,12.156863%);fill-opacity:1;" d="M 152.847656 8.074219 C 153.144531 8.191406 153.363281 8.34375 153.605469 8.550781 C 153.664062 8.597656 153.722656 8.648438 153.78125 8.695312 C 154.539062 9.386719 154.875 10.289062 154.929688 11.304688 C 154.898438 11.808594 154.78125 12.1875 154.445312 12.578125 C 154.035156 12.929688 153.519531 13.128906 153.03125 13.351562 C 152.910156 13.410156 152.785156 13.46875 152.664062 13.527344 C 152.347656 13.675781 152.027344 13.824219 151.710938 13.972656 C 151.472656 14.085938 151.230469 14.195312 150.992188 14.308594 C 149.871094 14.839844 148.746094 15.355469 147.613281 15.859375 C 147.042969 16.117188 146.484375 16.394531 145.925781 16.679688 C 145.398438 16.941406 145.007812 17.089844 144.425781 16.910156 C 143.863281 16.625 143.527344 16.222656 143.273438 15.648438 C 143.105469 15.097656 143.074219 14.585938 143.335938 14.066406 C 143.644531 13.6875 143.992188 13.457031 144.394531 13.195312 C 144.558594 13.085938 144.722656 12.976562 144.882812 12.867188 C 144.964844 12.8125 145.046875 12.757812 145.132812 12.699219 C 145.488281 12.460938 145.839844 12.214844 146.1875 11.964844 C 146.253906 11.917969 146.320312 11.871094 146.386719 11.824219 C 146.519531 11.730469 146.652344 11.632812 146.785156 11.539062 C 147.542969 11 148.304688 10.460938 149.066406 9.921875 C 149.148438 9.867188 149.230469 9.808594 149.3125 9.75 C 149.476562 9.636719 149.640625 9.523438 149.800781 9.40625 C 150.152344 9.164062 150.5 8.917969 150.835938 8.65625 C 151.488281 8.152344 152.011719 7.882812 152.847656 8.074219 Z M 152.847656 8.074219"></path>
<path style="stroke:none;fill-rule:nonzero;fill:rgb(100%,76.078433%,12.156863%);fill-opacity:1;" d="M 124.90625 8.160156 C 125.308594 8.402344 125.679688 8.683594 126.054688 8.96875 C 126.375 9.210938 126.707031 9.441406 127.035156 9.671875 C 127.167969 9.765625 127.304688 9.863281 127.4375 9.960938 C 127.894531 10.28125 128.351562 10.605469 128.808594 10.925781 C 129.464844 11.386719 130.121094 11.847656 130.773438 12.308594 C 131.117188 12.554688 131.464844 12.800781 131.8125 13.039062 C 131.886719 13.09375 131.957031 13.144531 132.035156 13.195312 C 132.175781 13.292969 132.316406 13.390625 132.457031 13.488281 C 133.089844 13.933594 133.089844 13.933594 133.257812 14.25 C 133.378906 14.941406 133.269531 15.53125 132.925781 16.136719 C 132.628906 16.5625 132.253906 16.878906 131.742188 17.003906 C 131.066406 16.980469 130.515625 16.671875 129.914062 16.382812 C 129.800781 16.324219 129.683594 16.269531 129.566406 16.214844 C 129.316406 16.097656 129.070312 15.980469 128.820312 15.859375 C 128.359375 15.640625 127.898438 15.425781 127.441406 15.207031 C 127.101562 15.046875 126.765625 14.890625 126.429688 14.730469 C 125.753906 14.410156 125.078125 14.089844 124.398438 13.777344 C 124.203125 13.691406 124.007812 13.601562 123.8125 13.511719 C 123.691406 13.453125 123.566406 13.398438 123.445312 13.34375 C 121.988281 12.683594 121.988281 12.683594 121.679688 12.125 C 121.445312 11.214844 121.539062 10.453125 121.964844 9.617188 C 122.539062 8.640625 123.691406 7.539062 124.90625 8.160156 Z M 124.90625 8.160156"></path>
<path style="stroke:none;fill-rule:nonzero;fill:rgb(100%,76.078433%,12.156863%);fill-opacity:1;" d="M 132.429688 21.300781 C 132.90625 21.734375 133.210938 22.144531 133.292969 22.796875 C 133.316406 23.40625 133.273438 23.742188 132.878906 24.226562 C 132.664062 24.40625 132.433594 24.558594 132.199219 24.710938 C 132.0625 24.804688 131.925781 24.894531 131.789062 24.988281 C 131.71875 25.03125 131.648438 25.082031 131.574219 25.128906 C 131.242188 25.351562 130.910156 25.589844 130.582031 25.824219 C 129.992188 26.242188 129.402344 26.660156 128.808594 27.074219 C 128.210938 27.492188 127.617188 27.914062 127.023438 28.332031 C 126.957031 28.378906 126.890625 28.425781 126.824219 28.472656 C 126.503906 28.699219 126.1875 28.929688 125.871094 29.160156 C 125.777344 29.222656 125.777344 29.222656 125.683594 29.292969 C 125.570312 29.375 125.457031 29.457031 125.34375 29.542969 C 124.828125 29.917969 124.417969 29.992188 123.792969 29.925781 C 122.96875 29.695312 122.429688 29.175781 122.011719 28.441406 C 121.941406 28.304688 121.871094 28.164062 121.804688 28.023438 C 121.746094 27.90625 121.746094 27.90625 121.6875 27.789062 C 121.496094 27.144531 121.441406 26.464844 121.710938 25.839844 C 122.066406 25.339844 122.410156 25.113281 122.964844 24.863281 C 123.078125 24.808594 123.078125 24.808594 123.195312 24.753906 C 123.445312 24.636719 123.691406 24.523438 123.941406 24.410156 C 124.113281 24.328125 124.285156 24.246094 124.457031 24.167969 C 124.800781 24.007812 125.148438 23.84375 125.492188 23.6875 C 125.898438 23.496094 126.304688 23.308594 126.710938 23.117188 C 127.238281 22.867188 127.765625 22.625 128.292969 22.382812 C 128.589844 22.246094 128.878906 22.105469 129.171875 21.964844 C 129.421875 21.84375 129.671875 21.726562 129.921875 21.609375 C 130.042969 21.554688 130.160156 21.496094 130.277344 21.4375 C 131.085938 21.042969 131.617188 20.859375 132.429688 21.300781 Z M 132.429688 21.300781"></path>
<path style="stroke:none;fill-rule:nonzero;fill:rgb(100%,76.078433%,12.156863%);fill-opacity:1;" d="M 140.148438 0.675781 C 140.515625 0.949219 140.707031 1.277344 140.828125 1.710938 C 140.851562 2 140.832031 2.285156 140.808594 2.578125 C 140.804688 2.660156 140.796875 2.742188 140.792969 2.828125 C 140.773438 3.089844 140.753906 3.347656 140.734375 3.609375 C 140.722656 3.773438 140.710938 3.933594 140.699219 4.097656 C 140.621094 5.160156 140.527344 6.226562 140.433594 7.289062 C 140.402344 7.675781 140.367188 8.066406 140.339844 8.453125 C 140.300781 8.925781 140.257812 9.398438 140.21875 9.871094 C 140.203125 10.050781 140.1875 10.230469 140.175781 10.410156 C 140.15625 10.660156 140.132812 10.90625 140.109375 11.15625 C 140.105469 11.230469 140.101562 11.300781 140.09375 11.378906 C 140.039062 11.925781 139.824219 12.273438 139.410156 12.636719 C 138.867188 12.945312 138.195312 12.984375 137.585938 12.867188 C 137.15625 12.730469 136.839844 12.523438 136.570312 12.160156 C 136.277344 11.183594 136.285156 10.058594 136.195312 9.042969 C 136.179688 8.855469 136.164062 8.664062 136.144531 8.472656 C 136.113281 8.078125 136.078125 7.679688 136.042969 7.28125 C 136 6.773438 135.953125 6.265625 135.910156 5.761719 C 135.875 5.367188 135.839844 4.976562 135.808594 4.582031 C 135.789062 4.394531 135.773438 4.207031 135.757812 4.023438 C 135.734375 3.761719 135.710938 3.5 135.6875 3.238281 C 135.683594 3.160156 135.675781 3.082031 135.667969 3.003906 C 135.550781 1.589844 135.550781 1.589844 135.929688 1.035156 C 136.996094 -0.113281 138.886719 -0.109375 140.148438 0.675781 Z M 140.148438 0.675781"></path>
<path style="stroke:none;fill-rule:nonzero;fill:rgb(100%,76.078433%,12.156863%);fill-opacity:1;" d="M 146.039062 21.386719 C 146.132812 21.433594 146.132812 21.433594 146.230469 21.480469 C 146.4375 21.578125 146.644531 21.679688 146.851562 21.777344 C 146.996094 21.847656 147.140625 21.917969 147.285156 21.988281 C 147.507812 22.09375 147.730469 22.199219 147.949219 22.304688 C 148.609375 22.621094 149.273438 22.929688 149.9375 23.238281 C 150.042969 23.289062 150.148438 23.335938 150.253906 23.386719 C 150.777344 23.628906 151.296875 23.871094 151.816406 24.109375 C 152.078125 24.230469 152.339844 24.347656 152.597656 24.46875 C 152.722656 24.527344 152.847656 24.585938 152.972656 24.640625 C 154.457031 25.3125 154.457031 25.3125 154.773438 25.875 C 154.964844 26.644531 154.933594 27.554688 154.59375 28.277344 C 154.117188 29.050781 153.527344 29.636719 152.660156 29.925781 C 152.152344 30.019531 151.789062 29.949219 151.351562 29.675781 C 151.210938 29.578125 151.074219 29.480469 150.933594 29.382812 C 150.742188 29.242188 150.542969 29.105469 150.347656 28.964844 C 149.9375 28.683594 149.53125 28.394531 149.125 28.109375 C 148.800781 27.878906 148.472656 27.648438 148.148438 27.417969 C 147.425781 26.914062 146.703125 26.40625 145.984375 25.890625 C 145.613281 25.628906 145.238281 25.367188 144.859375 25.109375 C 144.773438 25.050781 144.6875 24.992188 144.597656 24.929688 C 144.429688 24.816406 144.261719 24.699219 144.09375 24.585938 C 143.359375 24.078125 143.359375 24.078125 143.195312 23.65625 C 143.082031 22.984375 143.160156 22.414062 143.527344 21.839844 C 144.253906 20.90625 145.027344 20.894531 146.039062 21.386719 Z M 146.039062 21.386719"></path>
<path style="stroke:none;fill-rule:nonzero;fill:rgb(100%,76.078433%,12.156863%);fill-opacity:1;" d="M 139.363281 25.351562 C 140.3125 26.164062 140.152344 27.667969 140.257812 28.847656 C 140.273438 29.039062 140.289062 29.230469 140.304688 29.417969 C 140.339844 29.816406 140.375 30.214844 140.410156 30.609375 C 140.453125 31.117188 140.496094 31.625 140.542969 32.132812 C 140.578125 32.523438 140.609375 32.917969 140.644531 33.308594 C 140.660156 33.496094 140.679688 33.683594 140.695312 33.871094 C 140.71875 34.132812 140.738281 34.394531 140.761719 34.65625 C 140.773438 34.769531 140.773438 34.769531 140.78125 34.886719 C 140.910156 36.410156 140.910156 36.410156 140.523438 36.96875 C 139.984375 37.535156 139.351562 37.78125 138.589844 37.832031 C 137.667969 37.859375 136.917969 37.777344 136.148438 37.210938 C 135.769531 36.8125 135.628906 36.464844 135.609375 35.921875 C 135.621094 35.785156 135.628906 35.652344 135.640625 35.519531 C 135.648438 35.445312 135.652344 35.371094 135.660156 35.292969 C 135.675781 35.054688 135.695312 34.816406 135.71875 34.578125 C 135.730469 34.421875 135.742188 34.261719 135.753906 34.105469 C 135.792969 33.597656 135.839844 33.089844 135.882812 32.578125 C 135.890625 32.488281 135.898438 32.398438 135.90625 32.304688 C 135.949219 31.824219 135.992188 31.34375 136.03125 30.863281 C 136.078125 30.371094 136.117188 29.878906 136.160156 29.382812 C 136.191406 29 136.226562 28.617188 136.261719 28.234375 C 136.277344 28.054688 136.292969 27.871094 136.308594 27.6875 C 136.328125 27.433594 136.351562 27.183594 136.375 26.929688 C 136.378906 26.851562 136.386719 26.777344 136.394531 26.703125 C 136.445312 26.152344 136.582031 25.828125 136.964844 25.441406 C 137.6875 24.976562 138.605469 24.949219 139.363281 25.351562 Z M 139.363281 25.351562"></path>
<path style="stroke:none;fill-rule:nonzero;fill:rgb(100%,76.078433%,11.764706%);fill-opacity:1;" d="M 157.769531 27.738281 C 158.148438 27.929688 158.398438 28.136719 158.621094 28.5 C 158.78125 28.980469 158.769531 29.386719 158.570312 29.847656 C 158.351562 30.242188 158.105469 30.457031 157.675781 30.589844 C 157.226562 30.664062 156.859375 30.636719 156.457031 30.421875 C 156.140625 30.195312 155.949219 30.023438 155.8125 29.65625 C 155.730469 29.097656 155.753906 28.699219 156.066406 28.214844 C 156.617188 27.714844 157.039062 27.664062 157.769531 27.738281 Z M 156.445312 28.308594 C 156.21875 28.632812 156.136719 28.878906 156.167969 29.265625 C 156.234375 29.636719 156.347656 29.859375 156.632812 30.113281 C 157.039062 30.300781 157.222656 30.328125 157.652344 30.199219 C 158.019531 29.984375 158.019531 29.984375 158.242188 29.640625 C 158.382812 29.109375 158.328125 28.785156 158.054688 28.308594 C 157.777344 28.070312 157.613281 28.027344 157.25 27.988281 C 156.886719 28.027344 156.722656 28.078125 156.445312 28.308594 Z M 156.445312 28.308594"></path>
<path style="stroke:none;fill-rule:nonzero;fill:rgb(100%,76.078433%,12.156863%);fill-opacity:1;" d="M 156.730469 28.40625 C 156.882812 28.402344 157.035156 28.398438 157.191406 28.394531 C 157.277344 28.390625 157.359375 28.390625 157.449219 28.386719 C 157.675781 28.40625 157.675781 28.40625 157.863281 28.59375 C 157.882812 28.859375 157.890625 29.023438 157.769531 29.261719 C 157.828125 29.484375 157.890625 29.707031 157.957031 29.925781 C 157.804688 29.894531 157.648438 29.863281 157.484375 29.828125 C 157.453125 29.703125 157.421875 29.578125 157.390625 29.449219 C 157.265625 29.417969 157.140625 29.386719 157.011719 29.355469 C 157.011719 29.542969 157.011719 29.730469 157.011719 29.925781 C 156.917969 29.925781 156.824219 29.925781 156.730469 29.925781 C 156.730469 29.421875 156.730469 28.921875 156.730469 28.40625 Z M 157.011719 28.691406 C 157.011719 28.816406 157.011719 28.941406 157.011719 29.070312 C 157.167969 29.039062 157.324219 29.007812 157.484375 28.976562 C 157.484375 28.882812 157.484375 28.785156 157.484375 28.691406 C 157.328125 28.691406 157.171875 28.691406 157.011719 28.691406 Z M 157.011719 28.691406"></path>
</g>
</svg>
