<svg width="54" height="54" viewBox="0 0 54 54" fill="none" xmlns="http://www.w3.org/2000/svg">
    <path d="M9.449 45.77h-4.35v-.762h2.426c0-.874-.342-1.381-1.019-1.529a3.109 3.109 0 0 0-.677-.06v-.68c.369 0 .603.007.697.013.094.007.229.034.403.094.898.3 1.347 1.02 1.353 2.162H9.45v.761z" fill="#F20519"/>
    <path d="M11.063 47.23h-.737v-.747h.737v.748zm.02-2.669c0 .808-.375 1.208-1.12 1.208h-.79v-.76h.63c.248 0 .402-.074.475-.221.034-.08.054-.24.054-.481v-1.568h.75v1.822h.001zm-1.286 2.67h-.738v-.748h.738v.748zM13.254 42.125h-.737v-.74h.737v.74zm1.16 3.644h-1.2c-.114.714-.723 1.108-1.635 1.108v-.64c.623 0 .931-.308.931-.949V42.74h.751v2.27h1.153v.76z" fill="#F20519"/>
    <path d="M17.1 44.808c0-.234-.06-.44-.18-.607a.694.694 0 0 0-.57-.274.63.63 0 0 0-.542.267.97.97 0 0 0-.175.587c0 .48.295.875.758.875a.642.642 0 0 0 .536-.254.977.977 0 0 0 .174-.594m1.44.961h-.958c-.288.387-.69.58-1.213.58-.523 0-.911-.193-1.2-.58h-1.025v-.76h.724c-.007-.074-.007-.148-.007-.221 0-.448.141-.814.415-1.101.282-.287.644-.434 1.093-.434.448 0 .81.147 1.085.447.275.3.416.667.416 1.115v.193h.67v.761z" fill="#F20519"/>
    <path d="M20.224 44.561c0 .808-.376 1.208-1.126 1.208h-.791v-.76h.636c.248 0 .403-.074.476-.221.034-.08.054-.24.054-.481v-2.843h.75v3.097zM21.657 41.458h-.744v4.311h.744v-4.311zM24.405 44.28c0-.52-.281-.866-.71-.866-.396 0-.657.38-.657.834 0 .454.281.847.69.847.41 0 .677-.374.677-.814m.77 1.394c0 .795-.482 1.195-1.454 1.195v-.594c.47-.013.704-.327.718-.848-.128.227-.369.34-.71.34-.865 0-1.442-.633-1.442-1.52 0-.888.597-1.516 1.441-1.516.845 0 1.448.654 1.448 1.535v1.408zM31.006 42.732h-.73v-.74h.73v.74zm-1.274 0h-.73v-.74h.73v.74zm3.083.007v1.963c0 .667-.375 1.067-1.038 1.067h-2.433c-1.42 0-2.131-.627-2.131-1.889v-1.14h.744v1.14c0 .434.127.741.382.915.2.14.51.213.918.213h1.836c.342 0 .577-.04.704-.126.188-.12.282-.354.282-.694v-1.449h.737zM36.695 41.464v3.257c0 .634-.456 1.048-1.18 1.048h-2.003v-.76h1.025l-.844-3.07h.79l.838 3.07c.208 0 .355-.048.456-.148.127-.127.188-.34.188-.64v-2.757h.73zM39.375 45.77h-.878c-.362 0-.637-.114-.831-.348-.181-.214-.268-.5-.268-.867v-3.09h.744v2.79c0 .326.074.54.215.64.1.073.294.113.576.113h.443v.761h-.001z" fill="#F20519"/>
    <path d="m44.033 45.009.013-.214c0-.861-.402-1.401-1.038-1.401-.751 0-1.549.694-1.964 1.615h2.989zm1.568.76h-6.648v-.76h.75c.383 0 .57-.261.57-.788v-1.162h.75v.928c.598-.808 1.335-1.262 2.058-1.262 1.133 0 1.71.768 1.73 2.283h.79v.761z" fill="#F20519"/>
    <path d="M47.363 42.125h-.737v-.74h.737v.74zm.02 2.436c0 .808-.376 1.208-1.12 1.208h-.79v-.76h.63c.248 0 .402-.074.476-.221.034-.08.054-.24.054-.481v-1.568h.75v1.822zm-1.287-2.436h-.737v-.74h.737v.74zM48.817 41.458h-.744v4.311h.744v-4.311zM15.822 36.476c3.133 0 5.504-1.136 7.144-2.74 1.672 1.7 4.179 2.745 7.247 2.745 3.783 0 6.855-1.498 9.218-3.822l3.034 3.308h6.414l-6.578-7.117a22.326 22.326 0 0 0 2.759-8.666h-4.727A18.489 18.489 0 0 1 39.23 25.5a14.067 14.067 0 0 1-2.442 4.254c-1.536 1.773-3.504 2.915-5.751 2.915-2.652 0-4.472-1.136-5.163-3.036H20.82c-.827 1.97-2.756 2.955-5.198 2.955-2.68 0-5.438-1.93-5.751-5.87H25.68c.404-1.938 1.938-3.392 4.417-4.33 0 0 2.293-.846 4.57-1.819 3.151-1.456 5.514-4.056 5.514-7.367 0-4.687-4.017-6.3-7.641-6.3-4.57 0-7.953 2.402-7.953 6.224 0 2.245 1.223 4.371 3.034 6.498-.954.337-1.869.776-2.727 1.311-1.459-4.024-4.817-6.632-9.385-6.632-6.028 0-10.4 4.53-10.4 10.906s3.9 11.266 10.714 11.266h-.001zm16.751-26.015v-.016c1.732 0 3.15.984 3.15 2.915 0 1.772-1.063 3.506-3.466 4.57l-.038-.041c-1.42-1.498-2.759-3.229-2.759-4.883s1.457-2.545 3.113-2.545zm-17.07 7.512v-.009c2.757 0 5.28 2.011 5.398 5.32H9.87c.393-4.009 3.427-5.311 5.633-5.311z" fill="#F20519"/>
</svg>
