<?xml version="1.0" encoding="UTF-8"?>
<svg width="41px" height="41px" viewBox="0 0 41 41" version="1.1" xmlns="http://www.w3.org/2000/svg" xmlns:xlink="http://www.w3.org/1999/xlink">
    <!-- Generator: Sketch 59.1 (86144) - https://sketch.com -->
    <title>Mercator_logo_m</title>
    <desc>Created with Sketch.</desc>
    <g id="OK" stroke="none" stroke-width="1" fill="none" fill-rule="evenodd">
        <g id="Navadna-stran---MOBILE" transform="translate(-24.000000, -12.000000)">
            <g id="Mercator_logo_m" transform="translate(24.000000, 12.000000)">
                <g id="Mercator_logo">
                    <rect id="Rectangle" fill="#FFFFFF" fill-rule="nonzero" x="0" y="0" width="40.8633333" height="40.8633333"></rect>
                    <g id="Group" fill="#DF134C" fill-rule="nonzero">
                        <path d="M40.59,10.25 L32.8,18.04 C32.39,18.45 31.8433333,18.45 31.57,18.04 L27.88,14.35 C27.6066667,14.0766667 27.3333333,14.0766667 27.06,14.35 C26.9233333,14.4866667 26.9233333,14.6233333 26.9233333,14.76 L26.9233333,24.19 C26.9233333,24.3266667 26.9233333,24.4633333 26.7866667,24.6 C26.5133333,24.8733333 26.24,24.8733333 25.9666667,24.6 L16.1266667,14.76 C15.99,14.6233333 15.8533333,14.35 15.8533333,14.0766667 L15.8533333,7.24333333 C15.8533333,6.83333333 15.99,6.28666667 16.4,5.87666667 L22.14,0 L0,0 L0,22.14 L5.87666667,16.4 C6.28666667,15.99 6.69666667,15.8533333 7.24333333,15.8533333 L14.0766667,15.8533333 C14.35,15.8533333 14.4866667,15.99 14.76,16.1266667 L24.6,25.9666667 C24.8733333,26.24 24.8733333,26.5133333 24.6,26.7866667 C24.4633333,26.9233333 24.3266667,26.9233333 24.19,26.9233333 L14.76,26.9233333 C14.6233333,26.9233333 14.4866667,26.9233333 14.35,27.06 C14.0766667,27.3333333 14.0766667,27.6066667 14.35,27.88 L18.04,31.57 C18.45,31.98 18.45,32.5266667 18.04,32.8 L10.25,40.59 C10.1133333,40.7266667 9.97666667,40.7266667 9.84,40.8633333 L40.7266667,40.8633333 L40.7266667,9.97666667 C40.7266667,9.97666667 40.7266667,10.1133333 40.59,10.25" id="Path"></path>
                        <path d="M40.59,8.88333333 C40.7266667,9.02 40.7266667,9.02 40.7266667,9.15666667 L40.7266667,0 L31.57,0 L40.59,8.88333333 Z" id="Path"></path>
                        <path d="M9.02,40.59 L0,31.57 L0,40.7266667 L9.29333333,40.7266667 C9.15666667,40.7266667 9.02,40.7266667 9.02,40.59" id="Path"></path>
                    </g>
                </g>
            </g>
        </g>
    </g>
</svg>